<?xml version="1.0" encoding="UTF-8" standalone="no"?>
<!DOCTYPE svg PUBLIC "-//W3C//DTD SVG 1.1//EN"
 "http://www.w3.org/Graphics/SVG/1.1/DTD/svg11.dtd">
<!-- Generated by graphviz version 2.44.0 (20200518.1210)
 -->
<!-- Pages: 1 -->
<svg width="536pt" height="188pt"
 viewBox="0.00 0.00 535.75 188.00" xmlns="http://www.w3.org/2000/svg" xmlns:xlink="http://www.w3.org/1999/xlink">
<g id="graph0" class="graph" transform="scale(1 1) rotate(0) translate(4 184)">
<polygon fill="white" stroke="transparent" points="-4,4 -4,-184 531.75,-184 531.75,4 -4,4"/>
<!-- TestAccount -->
<g id="node1" class="node">
<title>TestAccount</title>
<ellipse fill="none" stroke="black" cx="209.22" cy="-162" rx="60.25" ry="18"/>
<text text-anchor="middle" x="209.22" y="-157.8" font-family="Times,serif" font-size="14.00">TestAccount</text>
</g>
<!-- Opp1 -->
<g id="node2" class="node">
<title>Opp1</title>
<ellipse fill="none" stroke="black" cx="126.22" cy="-90" rx="32.49" ry="18"/>
<text text-anchor="middle" x="126.22" y="-85.8" font-family="Times,serif" font-size="14.00">Opp1</text>
</g>
<!-- TestAccount&#45;&gt;Opp1 -->
<g id="edge1" class="edge">
<title>TestAccount&#45;&gt;Opp1</title>
<path fill="none" stroke="black" d="M189.97,-144.76C178.42,-135.02 163.6,-122.53 151.16,-112.04"/>
<polygon fill="black" stroke="black" points="153.29,-109.25 143.39,-105.48 148.78,-114.61 153.29,-109.25"/>
</g>
<!-- Opp2 -->
<g id="node3" class="node">
<title>Opp2</title>
<ellipse fill="none" stroke="black" cx="43.22" cy="-90" rx="32.49" ry="18"/>
<text text-anchor="middle" x="43.22" y="-85.8" font-family="Times,serif" font-size="14.00">Opp2</text>
</g>
<!-- TestAccount&#45;&gt;Opp2 -->
<g id="edge2" class="edge">
<title>TestAccount&#45;&gt;Opp2</title>
<path fill="none" stroke="black" d="M175.62,-146.83C147.11,-134.81 106.37,-117.63 77.62,-105.51"/>
<polygon fill="black" stroke="black" points="78.94,-102.27 68.37,-101.61 76.22,-108.72 78.94,-102.27"/>
</g>
<!-- Opp3 -->
<g id="node4" class="node">
<title>Opp3</title>
<ellipse fill="none" stroke="black" cx="209.22" cy="-90" rx="32.49" ry="18"/>
<text text-anchor="middle" x="209.22" y="-85.8" font-family="Times,serif" font-size="14.00">Opp3</text>
</g>
<!-- TestAccount&#45;&gt;Opp3 -->
<g id="edge3" class="edge">
<title>TestAccount&#45;&gt;Opp3</title>
<path fill="none" stroke="black" d="M209.22,-143.7C209.22,-135.98 209.22,-126.71 209.22,-118.11"/>
<polygon fill="black" stroke="black" points="212.72,-118.1 209.22,-108.1 205.72,-118.1 212.72,-118.1"/>
</g>
<!-- TestContact1 -->
<g id="node5" class="node">
<title>TestContact1</title>
<ellipse fill="none" stroke="black" cx="322.22" cy="-90" rx="62.56" ry="18"/>
<text text-anchor="middle" x="322.22" y="-85.8" font-family="Times,serif" font-size="14.00">TestContact1</text>
</g>
<!-- TestAccount&#45;&gt;TestContact1 -->
<g id="edge4" class="edge">
<title>TestAccount&#45;&gt;TestContact1</title>
<path fill="none" stroke="black" d="M234.3,-145.46C250.13,-135.66 270.8,-122.85 288.11,-112.13"/>
<polygon fill="black" stroke="black" points="290.16,-114.98 296.82,-106.73 286.47,-109.02 290.16,-114.98"/>
</g>
<!-- TestContact2 -->
<g id="node6" class="node">
<title>TestContact2</title>
<ellipse fill="none" stroke="black" cx="465.22" cy="-90" rx="62.56" ry="18"/>
<text text-anchor="middle" x="465.22" y="-85.8" font-family="Times,serif" font-size="14.00">TestContact2</text>
</g>
<!-- TestAccount&#45;&gt;TestContact2 -->
<g id="edge5" class="edge">
<title>TestAccount&#45;&gt;TestContact2</title>
<path fill="none" stroke="black" d="M252.07,-149.28C295.92,-137.29 364.17,-118.63 411.59,-105.66"/>
<polygon fill="black" stroke="black" points="412.65,-109 421.37,-102.99 410.8,-102.25 412.65,-109"/>
</g>
<!-- Origami -->
<g id="node7" class="node">
<title>Origami</title>
<ellipse fill="none" stroke="black" cx="43.22" cy="-18" rx="43.44" ry="18"/>
<text text-anchor="middle" x="43.22" y="-13.8" font-family="Times,serif" font-size="14.00">Origami</text>
</g>
<!-- Opp1&#45;&gt;Origami -->
<g id="edge6" class="edge">
<title>Opp1&#45;&gt;Origami</title>
<path fill="none" stroke="black" d="M109.02,-74.5C97.54,-64.81 82.22,-51.9 69.26,-40.96"/>
<polygon fill="black" stroke="black" points="71.45,-38.23 61.54,-34.46 66.93,-43.58 71.45,-38.23"/>
</g>
<!-- SLABronze -->
<g id="node8" class="node">
<title>SLABronze</title>
<ellipse fill="none" stroke="black" cx="161.22" cy="-18" rx="57.32" ry="18"/>
<text text-anchor="middle" x="161.22" y="-13.8" font-family="Times,serif" font-size="14.00">SLABronze</text>
</g>
<!-- Opp1&#45;&gt;SLABronze -->
<g id="edge7" class="edge">
<title>Opp1&#45;&gt;SLABronze</title>
<path fill="none" stroke="black" d="M134.51,-72.41C138.59,-64.25 143.61,-54.22 148.18,-45.07"/>
<polygon fill="black" stroke="black" points="151.4,-46.47 152.74,-35.96 145.14,-43.34 151.4,-46.47"/>
</g>
<!-- Opp2&#45;&gt;Origami -->
<g id="edge8" class="edge">
<title>Opp2&#45;&gt;Origami</title>
<path fill="none" stroke="black" d="M43.22,-71.7C43.22,-63.98 43.22,-54.71 43.22,-46.11"/>
<polygon fill="black" stroke="black" points="46.72,-46.1 43.22,-36.1 39.72,-46.1 46.72,-46.1"/>
</g>
<!-- 00001032 -->
<g id="node9" class="node">
<title>00001032</title>
<ellipse fill="none" stroke="black" cx="322.22" cy="-18" rx="49.83" ry="18"/>
<text text-anchor="middle" x="322.22" y="-13.8" font-family="Times,serif" font-size="14.00">00001032</text>
</g>
<!-- TestContact1&#45;&gt;00001032 -->
<g id="edge9" class="edge">
<title>TestContact1&#45;&gt;00001032</title>
<path fill="none" stroke="black" d="M322.22,-71.7C322.22,-63.98 322.22,-54.71 322.22,-46.11"/>
<polygon fill="black" stroke="black" points="325.72,-46.1 322.22,-36.1 318.72,-46.1 325.72,-46.1"/>
</g>
<!-- 00001033 -->
<g id="node10" class="node">
<title>00001033</title>
<ellipse fill="none" stroke="black" cx="465.22" cy="-18" rx="49.83" ry="18"/>
<text text-anchor="middle" x="465.22" y="-13.8" font-family="Times,serif" font-size="14.00">00001033</text>
</g>
<!-- TestContact2&#45;&gt;00001033 -->
<g id="edge10" class="edge">
<title>TestContact2&#45;&gt;00001033</title>
<path fill="none" stroke="black" d="M465.22,-71.7C465.22,-63.98 465.22,-54.71 465.22,-46.11"/>
<polygon fill="black" stroke="black" points="468.72,-46.1 465.22,-36.1 461.72,-46.1 468.72,-46.1"/>
</g>
</g>
</svg>
